<?xml version="1.0" encoding="utf-8"?>
<!-- Generator: Adobe Illustrator 16.0.0, SVG Export Plug-In . SVG Version: 6.00 Build 0)  -->
<!DOCTYPE svg PUBLIC "-//W3C//DTD SVG 1.1//EN" "http://www.w3.org/Graphics/SVG/1.1/DTD/svg11.dtd">
<svg version="1.1" id="Layer_1" xmlns="http://www.w3.org/2000/svg" xmlns:xlink="http://www.w3.org/1999/xlink" x="0px" y="0px"
	 width="1000px" height="1000px" viewBox="0 0 1000 1000" enable-background="new 0 0 1000 1000" xml:space="preserve">
<g>
	<g>
		<g>
			<path fill="#DB222C" d="M272.476,979.001c-0.011-319.334,0-638.667,0-958.001c48.625,0,97.25,0,145.875,0
				c-0.05,143.402-0.099,286.804-0.109,430.206C466.412,307.637,515.574,164.404,564.23,21c50.259,0,100.518,0,150.776,0
				c-51.951,153.717-105.333,306.941-158.851,460.118c59.351,165.189,117.148,330.932,171.368,497.883
				c-50.771-11.528-101.93-19.498-153.811-23.881c-50.363-145.717-102.393-290.847-154.401-435.981
				c-0.057,145.513-0.044,291.026-0.117,436.539C369.72,960.246,320.931,968.01,272.476,979.001z"/>
		</g>
	</g>
</g>
</svg>
