<?xml version="1.0" standalone="no"?>
<!DOCTYPE svg PUBLIC "-//W3C//DTD SVG 20010904//EN"
 "http://www.w3.org/TR/2001/REC-SVG-20010904/DTD/svg10.dtd">
<svg version="1.0" xmlns="http://www.w3.org/2000/svg"
 width="700.000000pt" height="700.000000pt" viewBox="0 0 700.000000 700.000000"
 preserveAspectRatio="xMidYMid meet">
<metadata>
Created by potrace 1.11, written by Peter Selinger 2001-2013
</metadata>
<g transform="translate(0.000000,700.000000) scale(0.100000,-0.100000)"
fill="#000000" stroke="none">
<path d="M1925 6852 c-20 -3 -20 -10 -19 -3348 1 -1840 4 -3347 6 -3350 3 -2
72 10 154 27 176 37 164 34 284 54 52 8 109 17 125 20 17 3 44 7 60 10 17 3
110 14 209 25 98 11 181 22 185 25 3 4 6 685 6 1515 0 829 3 1512 8 1516 4 4
7 0 7 -9 0 -14 47 -152 95 -277 24 -63 146 -405 150 -420 2 -8 17 -51 34 -95
44 -118 257 -719 426 -1200 37 -104 77 -219 90 -255 22 -62 53 -149 146 -417
22 -65 43 -125 46 -133 3 -8 22 -62 42 -120 l37 -105 104 -11 c58 -6 135 -14
172 -18 37 -4 77 -9 90 -11 13 -2 57 -9 98 -14 90 -13 127 -19 200 -32 56 -9
66 -11 135 -24 22 -4 51 -9 65 -12 14 -2 65 -13 114 -23 49 -11 91 -18 93 -16
4 4 -353 1080 -497 1496 -50 146 -100 290 -110 320 -51 152 -292 837 -499
1415 l-89 249 45 126 c25 69 64 181 88 250 40 117 93 268 251 720 36 102 71
206 78 232 8 25 17 51 20 57 6 9 82 227 261 751 35 102 118 345 185 540 127
371 180 529 180 539 0 10 -1040 5 -1049 -5 -5 -5 -33 -83 -64 -174 -31 -91
-108 -318 -172 -505 -64 -187 -131 -385 -150 -440 -18 -55 -99 -293 -180 -530
-164 -483 -335 -990 -406 -1200 l-47 -140 -2 55 c0 30 -1 704 0 1498 0 1163
-2 1442 -12 1443 -35 2 -976 4 -993 1z"/>
</g>
</svg>
